<?xml version="1.0" encoding="utf-8"?>
<!-- Generator: Adobe Illustrator 19.0.0, SVG Export Plug-In . SVG Version: 6.00 Build 0)  -->
<svg version="1.1" id="Capa_1" xmlns="http://www.w3.org/2000/svg" xmlns:xlink="http://www.w3.org/1999/xlink" x="0px" y="0px"
	 viewBox="-277 400.8 40.1 40.1" style="enable-background:new -277 400.8 40.1 40.1;" xml:space="preserve">
<style type="text/css">
	.st0{fill:#FFFFFF;}
</style>
<g>
	<g>
		<path class="st0" d="M-251.4,434.4h-19.2c-3.6,0-6.4-2.9-6.4-6.4c0-3.5,2.8-6.4,6.3-6.4c1.2-4.3,5.2-7.3,9.7-7.3
			c3.7,0,7.1,2,8.9,5.3c0.3,0,0.5,0,0.8,0c4.1,0,7.4,3.3,7.4,7.4C-243.9,431.1-247.3,434.4-251.4,434.4z M-270.6,422.6
			c-3,0-5.4,2.4-5.4,5.4s2.4,5.4,5.4,5.4h19.2c3.6,0,6.4-2.9,6.4-6.4c0-3.6-2.9-6.4-6.4-6.4c-0.3,0-0.6,0-1,0.1
			c-0.2,0-0.4-0.1-0.5-0.3c-1.5-3.1-4.7-5.1-8.1-5.1c-4.2,0-7.8,2.8-8.8,6.9c-0.1,0.2-0.3,0.4-0.5,0.4L-270.6,422.6z"/>
		<path class="st0" d="M-251.4,434.4c-0.3,0-0.5-0.2-0.5-0.5s0.2-0.5,0.5-0.5c3.6,0,6.4-2.9,6.4-6.4c0-3.6-2.9-6.4-6.4-6.4
			c-1.9,0-3.6,0.8-4.9,2.2c-0.2,0.2-0.5,0.2-0.7,0c-0.2-0.2-0.2-0.5,0-0.7c1.4-1.6,3.5-2.5,5.6-2.5c4.1,0,7.4,3.3,7.4,7.4
			C-243.9,431.1-247.3,434.4-251.4,434.4z"/>
	</g>
	<g>
		<path class="st0" d="M-244.4,427.4c-0.3,0-0.5-0.2-0.5-0.5c0-0.3,0.2-0.5,0.5-0.5c3.6,0,6.4-2.9,6.4-6.4c0-3.6-2.9-6.4-6.4-6.4
			c-0.3,0-0.6,0-1,0.1c-0.2,0-0.4-0.1-0.5-0.3c-1.5-3.1-4.7-5.1-8.1-5.1c-4.2,0-7.8,2.8-8.8,6.9c-0.1,0.2-0.3,0.4-0.5,0.4l-0.1,0
			c-0.3,0-0.5-0.2-0.5-0.5c0-0.2,0.1-0.4,0.3-0.5c1.2-4.3,5.2-7.3,9.7-7.3c3.7,0,7.1,2,8.9,5.3c0.3,0,0.5,0,0.8,0
			c4.1,0,7.4,3.3,7.4,7.4C-236.9,424.1-240.3,427.4-244.4,427.4z"/>
		<path class="st0" d="M-244.4,427.4c-0.3,0-0.5-0.2-0.5-0.5c0-0.3,0.2-0.5,0.5-0.5c3.6,0,6.4-2.9,6.4-6.4c0-3.6-2.9-6.4-6.4-6.4
			c-1.9,0-3.6,0.8-4.9,2.2c-0.2,0.2-0.5,0.2-0.7,0c-0.2-0.2-0.2-0.5,0-0.7c1.4-1.6,3.5-2.6,5.6-2.6c4.1,0,7.4,3.3,7.4,7.4
			C-236.9,424.1-240.3,427.4-244.4,427.4z"/>
	</g>
</g>
</svg>
