<?xml version="1.0" encoding="utf-8"?>
<!-- Generator: Adobe Illustrator 19.0.0, SVG Export Plug-In . SVG Version: 6.00 Build 0)  -->
<svg version="1.1" id="Layer_1" xmlns="http://www.w3.org/2000/svg" xmlns:xlink="http://www.w3.org/1999/xlink" x="0px" y="0px"
	 viewBox="-41 164.9 512 512" style="enable-background:new -41 164.9 512 512;" xml:space="preserve">
<style type="text/css">
	.st0{fill:#FFFFFF;}
</style>
<g>
	<g>
		<g>
			<path class="st0" d="M462.7,491.8c-7.9-6.3-19.1-6.5-27.2-0.3c-35.6,27.2-78.1,41.6-123,41.6c-12.2,0-24.5-1.1-36.4-3.3
				c-4.8-0.9-9.3,2.3-10.2,7.1c-0.9,4.8,2.3,9.3,7.1,10.2c13,2.4,26.3,3.5,39.5,3.5c48.8,0,95-15.6,133.7-45.2
				c1.7-1.3,4-1.3,5.6,0.1c1.6,1.3,2.2,3.6,1.3,5.5c-19.1,41.7-49.5,77-87.9,102.2c-39.5,25.9-85.4,39.5-132.7,39.5
				c-133.7,0-242.5-108.8-242.5-242.5c0-47.4,13.7-93.3,39.5-132.7C54.6,239,90,208.6,131.7,189.5c1.9-0.9,4.2-0.3,5.5,1.3
				c1.3,1.6,1.3,4,0.1,5.6C107.7,235.1,92,281.4,92,330.1c0,47.2,14.8,92.3,42.8,130.3c27.4,37.3,64.9,64.6,108.6,79
				c4.6,1.5,9.5-1,11.1-5.6c1.5-4.6-1-9.5-5.6-11.1c-83.3-27.6-139.3-105-139.3-192.7c0-44.9,14.4-87.4,41.6-123
				c6.2-8.1,6-19.2-0.3-27.2c-6.3-7.9-17.2-10.5-26.4-6.3c-44.7,20.4-82.6,53-109.6,94.2c-27.7,42.3-42.4,91.5-42.4,142.3
				c0,143.4,116.6,260,260,260c50.8,0,100-14.7,142.3-42.4c41.2-27,73.8-64.9,94.2-109.6C473.2,509,470.6,498.1,462.7,491.8z"/>
			<path class="st0" d="M210.5,329c20.7,0,37.5,16.8,37.5,37.5c0,4.8,3.9,8.8,8.8,8.8s8.8-3.9,8.8-8.8c0-20.7,16.8-37.5,37.5-37.5
				c4.8,0,8.8-3.9,8.8-8.8s-3.9-8.8-8.8-8.8c-20.7,0-37.5-16.8-37.5-37.5c0-4.8-3.9-8.8-8.8-8.8s-8.8,3.9-8.8,8.8
				c0,20.7-16.8,37.5-37.5,37.5c-4.8,0-8.8,3.9-8.8,8.8C201.7,325.1,205.6,329,210.5,329z M256.7,303.7c4.3,6.6,9.9,12.3,16.5,16.5
				c-6.6,4.3-12.3,9.9-16.5,16.5c-4.3-6.6-9.9-12.3-16.5-16.5C246.8,316,252.5,310.3,256.7,303.7z"/>
			<path class="st0" d="M334.4,441.6c15,0,27.2-12.2,27.2-27.2c0-15-12.2-27.2-27.2-27.2s-27.2,12.2-27.2,27.2
				C307.2,429.4,319.4,441.6,334.4,441.6z M334.4,404.6c5.4,0,9.7,4.4,9.7,9.7c0,5.4-4.4,9.7-9.7,9.7s-9.7-4.4-9.7-9.7
				C324.7,409,329,404.6,334.4,404.6z"/>
			<path class="st0" d="M-0.5,601.7c-15,0-27.2,12.2-27.2,27.2c0,15,12.2,27.2,27.2,27.2s27.2-12.2,27.2-27.2
				C26.7,613.9,14.5,601.7-0.5,601.7z M-0.5,638.6c-5.4,0-9.7-4.4-9.7-9.7s4.4-9.7,9.7-9.7s9.7,4.4,9.7,9.7
				C9.2,634.3,4.8,638.6-0.5,638.6z"/>
			<circle class="st0" cx="256.7" cy="425.3" r="11"/>
			<circle class="st0" cx="-30" cy="557.2" r="11"/>
			<circle class="st0" cx="327.1" cy="255.6" r="11"/>
		</g>
	</g>
</g>
</svg>
