<?xml version="1.0" encoding="utf-8"?>
<!-- Generator: Adobe Illustrator 19.0.0, SVG Export Plug-In . SVG Version: 6.00 Build 0)  -->
<svg version="1.1" id="Capa_1" xmlns="http://www.w3.org/2000/svg" xmlns:xlink="http://www.w3.org/1999/xlink" x="0px" y="0px"
	 viewBox="-280 404.8 33.1 33.1" style="enable-background:new -280 404.8 33.1 33.1;" xml:space="preserve">
<style type="text/css">
	.st0{fill:#FFFFFF;}
</style>
<g>
	<g>
		<path class="st0" d="M-254.4,427.2c-0.3,0-0.5-0.2-0.5-0.5s0.2-0.5,0.5-0.5c3.6,0,6.4-2.9,6.4-6.4c0-3.6-2.9-6.4-6.4-6.4
			c-0.3,0-0.6,0-1,0.1c-0.2,0-0.4-0.1-0.5-0.3c-1.5-3.1-4.7-5.1-8.1-5.1c-4.2,0-7.8,2.8-8.8,6.9c-0.1,0.2-0.3,0.4-0.5,0.4l-0.1,0
			c0,0,0,0,0,0c-3.1,0-5.5,2.4-5.5,5.4c0,3,2.4,5.4,5.4,5.4c0.3,0,0.5,0.2,0.5,0.5s-0.2,0.5-0.5,0.5c-3.6,0-6.4-2.9-6.4-6.4
			c0-3.5,2.8-6.4,6.3-6.4c1.2-4.3,5.2-7.3,9.7-7.3c3.7,0,7.1,2,8.9,5.3c0.3,0,0.5,0,0.8,0c4.1,0,7.4,3.3,7.4,7.4
			C-246.9,423.8-250.3,427.2-254.4,427.2z"/>
		<path class="st0" d="M-254.4,427.2c-0.3,0-0.5-0.2-0.5-0.5s0.2-0.5,0.5-0.5c3.6,0,6.4-2.9,6.4-6.4c0-3.6-2.9-6.4-6.4-6.4
			c-1.9,0-3.6,0.8-4.9,2.2c-0.2,0.2-0.5,0.2-0.7,0c-0.2-0.2-0.2-0.5,0-0.7c1.4-1.6,3.5-2.6,5.6-2.6c4.1,0,7.4,3.3,7.4,7.4
			C-246.9,423.8-250.3,427.2-254.4,427.2z"/>
	</g>
	<g>
		<path class="st0" d="M-271.7,435.7c-0.1,0-0.1,0-0.2,0c-0.3-0.1-0.4-0.4-0.3-0.6l0.9-2.9c0.1-0.3,0.4-0.4,0.6-0.3
			c0.3,0.1,0.4,0.4,0.3,0.6l-0.9,2.9C-271.3,435.6-271.5,435.7-271.7,435.7z M-269.9,430c-0.1,0-0.1,0-0.2,0
			c-0.3-0.1-0.4-0.4-0.3-0.6l0.9-2.9c0.1-0.3,0.4-0.4,0.6-0.3c0.3,0.1,0.4,0.4,0.3,0.6l-0.9,2.9C-269.5,429.9-269.7,430-269.9,430z"
			/>
	</g>
	<g>
		<path class="st0" d="M-261.7,435.7c-0.1,0-0.1,0-0.2,0c-0.3-0.1-0.4-0.4-0.3-0.6l0.9-2.9c0.1-0.3,0.4-0.4,0.6-0.3
			c0.3,0.1,0.4,0.4,0.3,0.6l-0.9,2.9C-261.3,435.6-261.5,435.7-261.7,435.7z M-259.9,430c-0.1,0-0.1,0-0.2,0
			c-0.3-0.1-0.4-0.4-0.3-0.6l0.9-2.9c0.1-0.3,0.4-0.4,0.6-0.3c0.3,0.1,0.4,0.4,0.3,0.6l-0.9,2.9C-259.5,429.9-259.7,430-259.9,430z"
			/>
	</g>
	<g>
		<path class="st0" d="M-266.7,435.7c-0.1,0-0.1,0-0.2,0c-0.3-0.1-0.4-0.4-0.3-0.6l0.9-2.9c0.1-0.3,0.4-0.4,0.6-0.3
			c0.3,0.1,0.4,0.4,0.3,0.6l-0.9,2.9C-266.3,435.6-266.5,435.7-266.7,435.7z M-264.9,430c-0.1,0-0.1,0-0.2,0
			c-0.3-0.1-0.4-0.4-0.3-0.6l0.9-2.9c0.1-0.3,0.4-0.4,0.6-0.3c0.3,0.1,0.4,0.4,0.3,0.6l-0.9,2.9C-264.5,429.9-264.7,430-264.9,430z"
			/>
	</g>
</g>
</svg>
