<?xml version="1.0" encoding="utf-8"?>
<!-- Generator: Adobe Illustrator 19.0.0, SVG Export Plug-In . SVG Version: 6.00 Build 0)  -->
<svg version="1.1" id="Layer_1" xmlns="http://www.w3.org/2000/svg" xmlns:xlink="http://www.w3.org/1999/xlink" x="0px" y="0px"
	 viewBox="-41 164.9 512 512" style="enable-background:new -41 164.9 512 512;" xml:space="preserve">
<style type="text/css">
	.st0{fill:#FFFFFF;}
</style>
<g>
	<g>
		<path class="st0" d="M215,276.2c-79.8,0-144.7,64.9-144.7,144.7S135.2,565.6,215,565.6s144.7-64.9,144.7-144.7
			S294.8,276.2,215,276.2z M215,543.3c-67.5,0-122.4-54.9-122.4-122.4S147.5,298.5,215,298.5s122.4,54.9,122.4,122.4
			S282.5,543.3,215,543.3z"/>
	</g>
</g>
<g>
	<g>
		<path class="st0" d="M215,320.7c-30.3,0-58.7,13.5-77.8,37.1c-3.9,4.8-3.1,11.8,1.6,15.7c2.1,1.7,4.5,2.5,7,2.5
			c3.2,0,6.5-1.4,8.7-4.1c14.9-18.4,37-28.9,60.5-28.9c6.1,0,11.1-5,11.1-11.1S221.1,320.7,215,320.7z"/>
	</g>
</g>
<g>
	<g>
		<path class="st0" d="M131.5,387.7c-5.9-1.5-12,2.1-13.5,8c0,0,0,0.1,0,0.1c-1.5,5.9,2.1,12,8.1,13.5c0.9,0.2,1.8,0.3,2.7,0.3
			c5,0,9.5-3.4,10.8-8.4c0,0,0-0.1,0-0.1C141.1,395.3,137.5,389.3,131.5,387.7z"/>
	</g>
</g>
<g>
	<g>
		<path class="st0" d="M215,164.9c-6.1,0-11.1,5-11.1,11.1v66.8c0,6.1,5,11.1,11.1,11.1s11.1-5,11.1-11.1V176
			C226.1,169.9,221.1,164.9,215,164.9z"/>
	</g>
</g>
<g>
	<g>
		<path class="st0" d="M215,587.8c-6.1,0-11.1,5-11.1,11.1v66.8c0,6.1,5,11.1,11.1,11.1s11.1-5,11.1-11.1V599
			C226.1,592.8,221.1,587.8,215,587.8z"/>
	</g>
</g>
<g>
	<g>
		<path class="st0" d="M96.9,287.1l-47.2-47.2c-4.3-4.3-11.4-4.3-15.7,0c-4.3,4.3-4.3,11.4,0,15.7l47.2,47.2c2.2,2.2,5,3.3,7.9,3.3
			s5.7-1.1,7.9-3.3C101.3,298.5,101.3,291.4,96.9,287.1z"/>
	</g>
</g>
<g>
	<g>
		<path class="st0" d="M396,586.2l-47.2-47.2c-4.3-4.3-11.4-4.3-15.7,0c-4.3,4.3-4.3,11.4,0,15.7l47.2,47.2c2.2,2.2,5,3.3,7.9,3.3
			s5.7-1.1,7.9-3.3C400.4,597.6,400.4,590.5,396,586.2z"/>
	</g>
</g>
<g>
	<g>
		<path class="st0" d="M36.9,409.8h-66.8c-6.1,0-11.1,5-11.1,11.1s5,11.1,11.1,11.1h66.8c6.1,0,11.1-5,11.1-11.1
			S43.1,409.8,36.9,409.8z"/>
	</g>
</g>
<g>
	<g>
		<path class="st0" d="M459.9,409.8h-66.8c-6.1,0-11.1,5-11.1,11.1s5,11.1,11.1,11.1h66.8c6.1,0,11.1-5,11.1-11.1
			S466,409.8,459.9,409.8z"/>
	</g>
</g>
<g>
	<g>
		<path class="st0" d="M96.9,538.9c-4.3-4.3-11.4-4.3-15.7,0L34,586.2c-4.3,4.3-4.3,11.4,0,15.7c2.2,2.2,5,3.3,7.9,3.3
			s5.7-1.1,7.9-3.3l47.2-47.2C101.3,550.3,101.3,543.3,96.9,538.9z"/>
	</g>
</g>
<g>
	<g>
		<path class="st0" d="M396,239.9c-4.3-4.3-11.4-4.3-15.7,0l-47.2,47.2c-4.3,4.3-4.3,11.4,0,15.7c2.2,2.2,5,3.3,7.9,3.3
			s5.7-1.1,7.9-3.3l47.2-47.2C400.4,251.3,400.4,244.2,396,239.9z"/>
	</g>
</g>
</svg>
